External Loads File
version=1
nRows=86
nColumns=13
Range=5.000000e-03-10 seconds
endheader
time 	forceRightX 	forceRightY 	forceRightZ 	pointRightX 	pointRightY 	pointRightZ 	forceLeftX 	forceLeftY 	forceLeftZ 	pointLeftX 	pointLeftY 	pointLeftZ 		
7.505000 -24.442186 29.686722 -0.000000 0.292026 0.468311 -0.127386 212.865329 877.352449 -0.000000 0.351196 0.144497 -0.366073
7.510000 -24.532967 39.635085 -0.000000 0.301849 0.472128 -0.127451 236.334625 858.968315 -0.000000 0.341047 0.140978 -0.365264
7.515000 -24.139641 49.794116 -0.000000 0.311661 0.475176 -0.127539 252.733813 833.993105 -0.000000 0.331705 0.137844 -0.365520
7.520000 -23.603327 59.728363 -0.000000 0.321470 0.477650 -0.127655 261.831116 803.006470 -0.000000 0.323321 0.135586 -0.366534
7.525000 -22.784724 69.265025 -0.000000 0.331524 0.479510 -0.127753 268.998637 764.735366 -0.000000 0.313976 0.134334 -0.366626
7.530000 -21.954421 78.140217 -0.000000 0.341450 0.480882 -0.127874 271.948561 720.437856 -0.000000 0.304290 0.134136 -0.366342
7.535000 -21.329967 86.244540 -0.000000 0.351164 0.481704 -0.127999 269.357867 671.469827 -0.000000 0.294923 0.134591 -0.366269
7.540000 -20.811520 93.652862 -0.000000 0.360782 0.481752 -0.128124 262.512930 618.548783 -0.000000 0.285659 0.135744 -0.366176
7.545000 -20.336600 100.485538 -0.000000 0.370241 0.481216 -0.128412 252.004573 562.958996 -0.000000 0.276496 0.137768 -0.366161
7.550000 -19.895744 106.890928 -0.000000 0.379376 0.480029 -0.128429 238.271811 506.304749 -0.000000 0.267531 0.140380 -0.366156
7.555000 -19.403630 113.077947 -0.000000 0.388085 0.478277 -0.128472 222.431002 449.970836 -0.000000 0.258644 0.143668 -0.366133
7.560000 -18.697586 119.322526 -0.000000 0.396759 0.475858 -0.128416 205.891119 395.068377 -0.000000 0.249944 0.147610 -0.366186
7.565000 -17.997974 125.895082 -0.000000 0.404581 0.472887 -0.128419 188.738162 343.066809 -0.000000 0.241437 0.152210 -0.366315
7.570000 -17.046401 133.189302 -0.000000 0.412246 0.468957 -0.128389 172.529030 294.108017 -0.000000 0.233153 0.157353 -0.366346
7.575000 -15.884793 141.577846 -0.000000 0.419590 0.464471 -0.127948 157.430986 248.357327 -0.000000 0.224980 0.163258 -0.366386
7.580000 -14.792311 151.397375 -0.000000 0.426185 0.459321 -0.127890 142.979399 205.944459 -0.000000 0.217285 0.169688 -0.366328
7.585000 -13.598080 162.969589 -0.000000 0.432286 0.453466 -0.127742 129.442859 166.660630 -0.000000 0.209909 0.176583 -0.366173
7.590000 -12.034700 176.516124 -0.000000 0.437891 0.446980 -0.127534 117.061458 130.613357 -0.000000 0.202348 0.184088 -0.364987
7.595000 -10.638116 192.095428 -0.000000 0.442989 0.439984 -0.127231 105.502779 98.472751 -0.000000 0.195889 0.192054 -0.364877
7.600000 -8.893010 209.694055 -0.000000 0.447631 0.431830 -0.126910 95.152321 70.022884 -0.000000 0.189918 0.200519 -0.364809
7.605000 -7.421115 229.032324 -0.000000 0.451694 0.423572 -0.126572 85.705846 45.526675 -0.000000 0.184580 0.209404 -0.364728
7.610000 -6.328391 249.660399 -0.000000 0.455363 0.415168 -0.126548 77.169151 24.826892 -0.000000 0.179838 0.218657 -0.364701
7.615000 -5.754797 270.989410 -0.000000 0.458446 0.405941 -0.126043 69.525835 7.719568 -0.000000 0.175713 0.227850 -0.364579
7.620000 -5.530340 292.391549 -0.000000 0.461423 0.396344 -0.125896 62.790167 -6.126875 -0.000000 0.172163 0.237526 -0.364455
7.625000 -6.197871 313.285467 -0.000000 0.463848 0.386436 -0.125669 57.026900 -16.933918 -0.000000 0.169219 0.247361 -0.364473
7.630000 -7.716023 333.265071 -0.000000 0.465879 0.376138 -0.125515 52.351160 -25.125938 -0.000000 0.167074 0.257323 -0.364522
7.635000 -9.919535 352.136236 -0.000000 0.467437 0.365615 -0.125314 48.849392 -31.157690 -0.000000 0.165345 0.267481 -0.364382
7.640000 -12.737524 369.889832 -0.000000 0.468655 0.354897 -0.125388 46.548981 -35.428328 -0.000000 0.164192 0.277742 -0.364420
7.645000 -15.734840 386.675438 -0.000000 0.469435 0.343966 -0.125351 45.353401 -38.290316 -0.000000 0.163598 0.288219 -0.364376
7.650000 -18.824796 402.734558 -0.000000 0.469794 0.333017 -0.124963 45.150969 -39.951310 -0.000000 0.163626 0.298846 -0.364259
7.655000 -21.984175 418.355604 -0.000000 0.469591 0.322025 -0.125388 45.838346 -40.555429 -0.000000 0.164245 0.309287 -0.364363
7.660000 -24.168360 433.897559 -0.000000 0.469053 0.310965 -0.124780 47.219508 -40.357132 -0.000000 0.165497 0.319938 -0.364353
7.665000 -25.259810 449.645999 -0.000000 0.467507 0.299815 -0.125333 49.170438 -39.550823 -0.000000 0.167321 0.330481 -0.364308
7.670000 -24.406942 465.824832 -0.000000 0.465634 0.288278 -0.125364 51.445230 -38.444609 -0.000000 0.169740 0.340918 -0.364374
7.675000 -22.573112 482.414279 -0.000000 0.463304 0.277260 -0.125319 53.883107 -37.144314 -0.000000 0.172732 0.351310 -0.364472
7.680000 -19.310445 499.343224 -0.000000 0.460432 0.266522 -0.125254 56.155649 -35.905580 -0.000000 0.176391 0.361537 -0.364542
7.685000 -14.460468 516.445344 -0.000000 0.457028 0.256018 -0.125240 57.951983 -34.966143 -0.000000 0.180574 0.371611 -0.364620
7.690000 -8.350709 533.524023 -0.000000 0.453101 0.245826 -0.125182 59.003287 -34.515782 -0.000000 0.185394 0.381323 -0.364629
7.695000 -0.291520 550.398707 -0.000000 0.448722 0.235760 -0.125276 58.997234 -34.825125 -0.000000 0.190877 0.390891 -0.364793
7.700000 8.875937 566.854653 -0.000000 0.443925 0.226106 -0.125332 57.770626 -35.912004 -0.000000 0.196920 0.400092 -0.364929
7.705000 19.402612 582.707392 -0.000000 0.438516 0.216818 -0.125340 55.162268 -37.791613 -0.000000 0.203336 0.408982 -0.364880
7.710000 31.262977 597.815199 -0.000000 0.432667 0.207967 -0.125387 51.105221 -40.325617 -0.000000 0.210353 0.417476 -0.364942
7.715000 44.547663 612.045464 -0.000000 0.426384 0.199456 -0.125169 45.602573 -43.294369 -0.000000 0.217874 0.425516 -0.364874
7.720000 59.578971 625.185213 -0.000000 0.419556 0.191356 -0.125104 38.716706 -46.430319 -0.000000 0.225930 0.433168 -0.364961
7.725000 75.570522 637.031615 -0.000000 0.412334 0.183764 -0.125056 30.661279 -49.359709 -0.000000 0.234320 0.440288 -0.364912
7.730000 91.236944 647.426734 -0.000000 0.404726 0.176916 -0.125096 21.768959 -51.720035 -0.000000 0.242378 0.447016 -0.364102
7.735000 109.518702 655.535313 -0.000000 0.396830 0.170371 -0.125307 12.114392 -53.307479 -0.000000 0.251785 0.453125 -0.364571
7.740000 128.405463 661.064546 -0.000000 0.388411 0.164504 -0.125280 2.228330 -53.754715 -0.000000 0.261301 0.458807 -0.364193
7.745000 148.012713 663.341147 -0.000000 0.379696 0.159352 -0.125282 -7.516998 -52.850834 -0.000000 0.271422 0.463865 -0.364982
7.750000 166.770517 662.004470 -0.000000 0.370750 0.154669 -0.125212 -16.678998 -50.495305 -0.000000 0.281482 0.468247 -0.365371
7.755000 183.649607 656.676179 -0.000000 0.361526 0.150705 -0.125142 -24.984085 -46.738164 -0.000000 0.291206 0.471987 -0.364879
7.760000 199.345915 646.564129 -0.000000 0.352149 0.147204 -0.125060 -32.409465 -41.677809 -0.000000 0.301270 0.474988 -0.364736
7.765000 212.607330 631.515837 -0.000000 0.342684 0.144360 -0.124958 -38.881083 -35.547741 -0.000000 0.311357 0.477346 -0.364751
7.770000 223.270727 611.309435 -0.000000 0.333084 0.142295 -0.124828 -44.449144 -28.559534 -0.000000 0.321557 0.479132 -0.364620
7.775000 230.473002 586.340781 -0.000000 0.323518 0.140861 -0.124661 -49.139405 -20.964343 -0.000000 0.331725 0.480319 -0.364854
7.780000 234.334051 557.073048 -0.000000 0.313773 0.140070 -0.124554 -53.010620 -12.937990 -0.000000 0.341772 0.480659 -0.364957
7.785000 234.394115 524.558087 -0.000000 0.304152 0.140100 -0.124430 -56.091184 -4.710784 -0.000000 0.351641 0.480540 -0.365183
7.790000 231.226916 489.604049 -0.000000 0.294646 0.140669 -0.124380 -58.440029 3.583296 -0.000000 0.361505 0.479965 -0.365200
7.795000 224.947951 453.160561 -0.000000 0.284988 0.142045 -0.124157 -60.110472 11.786651 -0.000000 0.370752 0.478788 -0.365519
7.800000 216.492596 415.522357 -0.000000 0.275444 0.144160 -0.123965 -61.124338 19.904570 -0.000000 0.379942 0.477019 -0.365556
7.805000 205.649039 377.268311 -0.000000 0.266150 0.146793 -0.123811 -61.524561 27.876084 -0.000000 0.388718 0.474745 -0.365863
7.810000 193.095459 338.357626 -0.000000 0.257099 0.150219 -0.123702 -61.327325 35.862138 -0.000000 0.397192 0.471885 -0.365971
7.815000 179.011547 298.999594 -0.000000 0.248066 0.154063 -0.123474 -60.603871 44.046128 -0.000000 0.405210 0.468540 -0.365999
7.820000 163.373869 259.641248 -0.000000 0.239592 0.158531 -0.123311 -59.521200 52.667696 -0.000000 0.412754 0.464652 -0.366172
7.825000 146.623189 220.630488 -0.000000 0.231573 0.163644 -0.123222 -58.212519 62.167248 -0.000000 0.419759 0.460264 -0.366415
7.830000 129.197800 182.505816 -0.000000 0.223952 0.169192 -0.123053 -56.781860 73.069147 -0.000000 0.426241 0.455253 -0.366462
7.835000 111.541505 145.974189 -0.000000 0.216783 0.175193 -0.122959 -55.340312 85.906165 -0.000000 0.432244 0.449744 -0.366335
7.840000 94.475822 111.530760 -0.000000 0.209161 0.181725 -0.123720 -53.766593 101.289483 -0.000000 0.437650 0.443511 -0.366932
7.845000 78.098935 80.202876 -0.000000 0.202897 0.188636 -0.123688 -52.496144 119.340114 -0.000000 0.442739 0.436531 -0.367759
7.850000 63.178667 52.283677 -0.000000 0.197110 0.195964 -0.123564 -51.540198 140.185490 -0.000000 0.447056 0.428545 -0.368110
7.855000 50.073880 28.066252 -0.000000 0.191723 0.203760 -0.123539 -51.241283 163.474150 -0.000000 0.450828 0.420276 -0.368300
7.860000 38.992057 7.532364 -0.000000 0.186910 0.211830 -0.123183 -51.887093 188.561231 -0.000000 0.454097 0.411317 -0.368397
7.865000 29.854995 -9.570727 -0.000000 0.182678 0.220473 -0.123146 -53.625102 214.604073 -0.000000 0.457108 0.401894 -0.368718
7.870000 22.329558 -23.607588 -0.000000 0.178945 0.229304 -0.122937 -56.634746 240.695025 -0.000000 0.459738 0.391710 -0.369200
7.875000 16.004069 -34.949680 -0.000000 0.175780 0.238377 -0.122882 -61.111501 266.050617 -0.000000 0.462128 0.381226 -0.369365
7.880000 10.507103 -43.878555 -0.000000 0.173136 0.247570 -0.122831 -66.870804 290.178648 -0.000000 0.464185 0.370345 -0.369502
7.885000 5.618405 -50.512149 -0.000000 0.171166 0.257204 -0.122745 -73.589545 312.806951 -0.000000 0.465798 0.359450 -0.369851
7.890000 1.258496 -54.865534 -0.000000 0.169735 0.266959 -0.122701 -80.692384 333.907819 -0.000000 0.466963 0.348329 -0.370043
7.895000 -2.456793 -56.954704 -0.000000 0.169004 0.276669 -0.122654 -87.914360 353.602303 -0.000000 0.467801 0.337184 -0.370106
7.900000 -5.392032 -56.884945 -0.000000 0.168859 0.286530 -0.122598 -94.582472 372.318570 -0.000000 0.468027 0.326136 -0.370089
7.905000 -7.415744 -54.864910 -0.000000 0.169108 0.296634 -0.122723 -99.880410 390.637030 -0.000000 0.467741 0.315150 -0.370248
7.910000 -8.367819 -51.227439 -0.000000 0.170052 0.306918 -0.122797 -103.403845 409.040276 -0.000000 0.466939 0.304242 -0.370019
7.915000 -8.118044 -46.414457 -0.000000 0.171556 0.317208 -0.122868 -105.156230 427.836105 -0.000000 0.465515 0.293567 -0.369898
7.920000 -6.726682 -40.882539 -0.000000 0.173699 0.327450 -0.122868 -104.455093 447.396587 -0.000000 0.463634 0.282801 -0.369780
7.925000 -4.318044 -35.057569 -0.000000 0.176601 0.337915 -0.122987 -100.845592 467.934840 -0.000000 0.461289 0.272070 -0.369495
7.930000 -1.038953 -29.306220 -0.000000 0.179874 0.348262 -0.123147 -94.793169 489.398129 -0.000000 0.458263 0.261353 -0.369395
